<svg width="130" height="130" viewBox="0 0 130 130" fill="none" xmlns="http://www.w3.org/2000/svg">
<rect x="10" y="8" width="110" height="110" rx="15" fill="white"/>
<g filter="url(#filter0_d_1_10)">
<rect x="10" y="8" width="110" height="110" rx="15" fill="#879FAA" fill-opacity="0.101961" shape-rendering="crispEdges"/>
<rect x="13.5" y="11.5" width="103" height="103" rx="11.5" stroke="#879FAA" stroke-opacity="0.25098" stroke-width="7" shape-rendering="crispEdges"/>
</g>
<mask id="path-4-outside-1_1_10" maskUnits="userSpaceOnUse" x="38" y="27" width="45" height="75" fill="black">
<rect fill="white" x="38" y="27" width="45" height="75"/>
<path d="M72.1818 29.1818H80.6364V79.0909C80.6364 83.5455 79.8182 87.3295 78.1818 90.4432C76.5455 93.5568 74.2386 95.9205 71.2614 97.5341C68.2841 99.1477 64.7727 99.9545 60.7273 99.9545C56.9091 99.9545 53.5114 99.2614 50.5341 97.875C47.5568 96.4659 45.2159 94.4659 43.5114 91.875C41.8068 89.2841 40.9545 86.2045 40.9545 82.6364H49.2727C49.2727 84.6136 49.7614 86.3409 50.7386 87.8182C51.7386 89.2727 53.1023 90.4091 54.8295 91.2273C56.5568 92.0455 58.5227 92.4545 60.7273 92.4545C63.1591 92.4545 65.2273 91.9432 66.9318 90.9205C68.6364 89.8977 69.9318 88.3977 70.8182 86.4205C71.7273 84.4205 72.1818 81.9773 72.1818 79.0909V29.1818Z"/>
</mask>
<path d="M72.1818 29.1818H80.6364V79.0909C80.6364 83.5455 79.8182 87.3295 78.1818 90.4432C76.5455 93.5568 74.2386 95.9205 71.2614 97.5341C68.2841 99.1477 64.7727 99.9545 60.7273 99.9545C56.9091 99.9545 53.5114 99.2614 50.5341 97.875C47.5568 96.4659 45.2159 94.4659 43.5114 91.875C41.8068 89.2841 40.9545 86.2045 40.9545 82.6364H49.2727C49.2727 84.6136 49.7614 86.3409 50.7386 87.8182C51.7386 89.2727 53.1023 90.4091 54.8295 91.2273C56.5568 92.0455 58.5227 92.4545 60.7273 92.4545C63.1591 92.4545 65.2273 91.9432 66.9318 90.9205C68.6364 89.8977 69.9318 88.3977 70.8182 86.4205C71.7273 84.4205 72.1818 81.9773 72.1818 79.0909V29.1818Z" fill="#879FAA"/>
<path d="M72.1818 29.1818V27.1818H70.1818V29.1818H72.1818ZM80.6364 29.1818H82.6364V27.1818H80.6364V29.1818ZM78.1818 90.4432L79.9522 91.3736L79.9522 91.3736L78.1818 90.4432ZM71.2614 97.5341L72.2144 99.2924L72.2144 99.2924L71.2614 97.5341ZM50.5341 97.875L49.6785 99.6828L49.6898 99.6881L50.5341 97.875ZM43.5114 91.875L41.8405 92.9742L41.8405 92.9742L43.5114 91.875ZM40.9545 82.6364V80.6364H38.9545V82.6364H40.9545ZM49.2727 82.6364H51.2727V80.6364H49.2727V82.6364ZM50.7386 87.8182L49.0706 88.9217L49.0804 88.9365L49.0906 88.9512L50.7386 87.8182ZM54.8295 91.2273L55.6857 89.4198L55.6857 89.4198L54.8295 91.2273ZM66.9318 90.9205L65.9028 89.2055L65.9028 89.2055L66.9318 90.9205ZM70.8182 86.4205L68.9974 85.5928L68.9932 85.6023L70.8182 86.4205ZM72.1818 29.1818V31.1818H80.6364V29.1818V27.1818H72.1818V29.1818ZM80.6364 29.1818H78.6364V79.0909H80.6364H82.6364V29.1818H80.6364ZM80.6364 79.0909H78.6364C78.6364 83.3056 77.8621 86.7524 76.4114 89.5128L78.1818 90.4432L79.9522 91.3736C81.7743 87.9067 82.6364 83.7853 82.6364 79.0909H80.6364ZM78.1818 90.4432L76.4114 89.5128C74.9519 92.2899 72.9231 94.3586 70.3084 95.7757L71.2614 97.5341L72.2144 99.2924C75.5541 97.4823 78.139 94.8238 79.9522 91.3736L78.1818 90.4432ZM71.2614 97.5341L70.3084 95.7757C67.6757 97.2026 64.5045 97.9545 60.7273 97.9545V99.9545V101.955C65.041 101.955 68.8925 101.093 72.2144 99.2924L71.2614 97.5341ZM60.7273 99.9545V97.9545C57.1536 97.9545 54.0515 97.3067 51.3783 96.0619L50.5341 97.875L49.6898 99.6881C52.9712 101.216 56.6646 101.955 60.7273 101.955V99.9545ZM50.5341 97.875L51.3897 96.0672C48.7225 94.8049 46.6725 93.041 45.1822 90.7758L43.5114 91.875L41.8405 92.9742C43.7594 95.8909 46.3911 98.1269 49.6785 99.6828L50.5341 97.875ZM43.5114 91.875L45.1822 90.7758C43.7233 88.5583 42.9545 85.8742 42.9545 82.6364H40.9545H38.9545C38.9545 86.5349 39.8903 90.0099 41.8405 92.9742L43.5114 91.875ZM40.9545 82.6364V84.6364H49.2727V82.6364V80.6364H40.9545V82.6364ZM49.2727 82.6364H47.2727C47.2727 84.9588 47.8521 87.0798 49.0706 88.9217L50.7386 87.8182L52.4067 86.7147C51.6706 85.6021 51.2727 84.2685 51.2727 82.6364H49.2727ZM50.7386 87.8182L49.0906 88.9512C50.3068 90.7204 51.9545 92.0784 53.9734 93.0347L54.8295 91.2273L55.6857 89.4198C54.25 88.7397 53.1704 87.8251 52.3867 86.6851L50.7386 87.8182ZM54.8295 91.2273L53.9734 93.0347C56.0064 93.9978 58.272 94.4545 60.7273 94.4545V92.4545V90.4545C58.7735 90.4545 57.1072 90.0931 55.6857 89.4198L54.8295 91.2273ZM60.7273 92.4545V94.4545C63.4407 94.4545 65.8828 93.8823 67.9608 92.6354L66.9318 90.9205L65.9028 89.2055C64.5718 90.0041 62.8774 90.4545 60.7273 90.4545V92.4545ZM66.9318 90.9205L67.9608 92.6354C70.0479 91.3832 71.6053 89.5539 72.6432 87.2386L70.8182 86.4205L68.9932 85.6023C68.2583 87.2416 67.2248 88.4123 65.9028 89.2055L66.9318 90.9205ZM70.8182 86.4205L72.6389 87.2481C73.6971 84.9202 74.1818 82.1772 74.1818 79.0909H72.1818H70.1818C70.1818 81.7773 69.7575 83.9208 68.9975 85.5928L70.8182 86.4205ZM72.1818 79.0909H74.1818V29.1818H72.1818H70.1818V79.0909H72.1818Z" fill="#879FAA" mask="url(#path-4-outside-1_1_10)"/>
<defs>
<filter id="filter0_d_1_10" x="0" y="0" width="130" height="130" filterUnits="userSpaceOnUse" color-interpolation-filters="sRGB">
<feFlood flood-opacity="0" result="BackgroundImageFix"/>
<feColorMatrix in="SourceAlpha" type="matrix" values="0 0 0 0 0 0 0 0 0 0 0 0 0 0 0 0 0 0 127 0" result="hardAlpha"/>
<feOffset dy="2"/>
<feGaussianBlur stdDeviation="5"/>
<feComposite in2="hardAlpha" operator="out"/>
<feColorMatrix type="matrix" values="0 0 0 0 0.529412 0 0 0 0 0.623529 0 0 0 0 0.666667 0 0 0 0.25098 0"/>
<feBlend mode="normal" in2="BackgroundImageFix" result="effect1_dropShadow_1_10"/>
<feBlend mode="normal" in="SourceGraphic" in2="effect1_dropShadow_1_10" result="shape"/>
</filter>
</defs>
</svg>
