<svg width="1397" height="388" viewBox="0 0 1397 388" fill="none" xmlns="http://www.w3.org/2000/svg">
<path d="M237 336.233L161.5 388H1169L1108.5 286.477C1069.83 269.221 990.7 233.604 983.5 229.181C974.5 223.653 902.5 162.337 891.5 145.751C882.7 132.483 820.5 88.6235 790.5 68.3523L702 0C672.667 17.7582 610.3 56.2902 595.5 68.3523C577 83.43 536.5 158.819 527.5 162.337C520.3 165.151 449.5 197.016 415 212.596L382 286.477L237 336.233Z" fill="#A4D0E9"/>
<path d="M105 345L0 388H26H903C879 380 823 358 819 358C815 358 785.333 349.333 771 345C756 329 725.6 295.6 724 290C722.4 284.4 697.333 264.333 685 255C658.667 249 604.4 235.6 598 230C590 223 530 199 524 193C519.2 188.2 495.333 155 484 139L435 154L354 181L275 220L253.5 255L205.5 277L159.5 315.5L105 345Z" fill="#41818F"/>
<path d="M592 369L504.5 388H1397L1333.5 337.5L1270 259L1205 217L1123 143L1068 112L1015.5 61L924.5 98.5L867.5 155.5L787.5 217L719 259L683 311.5L633 337.5L592 369Z" fill="#51AABD"/>
</svg>
