<svg width="1441" height="388" viewBox="0 0 1441 388" fill="none" xmlns="http://www.w3.org/2000/svg">
<path d="M235 336.233L159.5 388H1167L1106.5 286.477C1067.83 269.221 988.7 233.604 981.5 229.181C972.5 223.653 900.5 162.337 889.5 145.751C880.7 132.483 818.5 88.6235 788.5 68.3523L700 0C670.667 17.7582 608.3 56.2902 593.5 68.3523C575 83.43 534.5 158.819 525.5 162.337C518.3 165.151 447.5 197.016 413 212.596L380 286.477L235 336.233Z" fill="#A4D0E9"/>
<path d="M105 344L0 387H26H903C879 379 823 357 819 357C815 357 785.333 348.333 771 344C756 328 725.6 294.6 724 289C722.4 283.4 697.333 263.333 685 254C658.667 248 604.4 234.6 598 229C590 222 530 198 524 192C519.2 187.2 495.333 154 484 138L435 153L354 180L275 219L253.5 254L205.5 276L159.5 314.5L105 344Z" fill="#41818F"/>
<path d="M617 365L531 387.5H1441L1358.5 333.5L1295 255L1230 213L1148 139L1093 108L1040.5 57L949.5 94.5L892.5 151.5L812.5 213L744 255L708 307.5L658 333.5L617 365Z" fill="#51AABD"/>
</svg>
